<mxfile host="app.diagrams.net" modified="2024-06-13T06:03:53.096Z" agent="Mozilla/5.0 (Windows NT 10.0; Win64; x64) AppleWebKit/537.36 (KHTML, like Gecko) Chrome/126.0.0.0 Safari/537.36" version="24.5.4" etag="CaNFT0U4I7pjf_82qzez" type="github">
  <diagram name="หน้า-1" id="BrUxXttHeDTVLQUUQbGT">
    <mxGraphModel>
      <root>
        <mxCell id="0" />
        <mxCell id="1" parent="0" />
      </root>
    </mxGraphModel>
  </diagram>
</mxfile>
